# xmcd
#
# Track frame offsets: 
#        150
#        21990
#        46415
#        66368
#        89952
#        104971
#        122697
#        135507
#        154198
#
# Disc length: 2359 seconds
#
# Revision: 0
# Processed by: cddbd v1.5.2PL0 Copyright (c) Steve Scherf et al.
# Submitted via: ExactAudioCopy v0.95b4
#
DISCID=87093509
DTITLE=Atlanta Rhythm Section - The Boys From Doraville
DYEAR=1980
DGENRE=
TTITLE0=Cocaine Charlie
TTITLE1=Next Year's Rock and Roll
TTITLE2=I Ain't Much
TTITLE3=Putting My Faith In Love
TTITLE4=Rough at the Edges
TTITLE5=Silver Eagle
TTITLE6=Pedestal
TTITLE7=Try My love
TTITLE8=Strictly R and R
EXTD=
EXTT0=
EXTT1=
EXTT2=
EXTT3=
EXTT4=
EXTT5=
EXTT6=
EXTT7=
EXTT8=
PLAYORDER=
